<?xml version="1.0" standalone="no"?>
<!DOCTYPE svg PUBLIC "-//W3C//DTD SVG 20010904//EN"
 "http://www.w3.org/TR/2001/REC-SVG-20010904/DTD/svg10.dtd">
<svg version="1.0" xmlns="http://www.w3.org/2000/svg"
 width="960.000000pt" height="540.000000pt" viewBox="0 0 960.000000 540.000000"
 preserveAspectRatio="xMidYMid meet">

<g transform="translate(0.000000,540.000000) scale(0.100000,-0.100000)"
fill="#000000" stroke="none">
<path d="M0 2700 l0 -2700 2139 0 c1416 0 2142 3 2146 10 3 6 11 10 16 10 6 0
7 -4 4 -10 -4 -6 13 -10 44 -10 54 0 68 14 25 24 -32 8 -25 17 15 21 28 2 30
0 25 -21 -6 -22 -3 -24 36 -24 44 0 75 18 166 94 19 15 34 24 34 20 0 -5 4 -4
8 2 4 6 59 50 122 97 258 194 463 359 660 532 128 112 184 162 204 180 6 6 92
82 191 169 512 451 713 569 1118 662 53 12 81 23 88 36 7 14 6 20 -5 24 -9 3
-18 21 -22 39 -3 19 -12 36 -20 39 -8 3 -14 19 -14 37 0 26 -2 29 -14 20 -10
-8 -16 -9 -21 -1 -9 14 4 32 18 23 7 -4 -3 12 -20 36 -18 24 -30 49 -26 54 3
6 12 2 20 -8 7 -11 13 -16 13 -13 0 12 130 -130 238 -260 118 -143 153 -200
144 -235 -5 -21 -6 -21 -12 4 -27 97 -145 152 -330 152 -215 1 -439 -85 -676
-259 -93 -68 -126 -102 -120 -122 3 -10 14 -51 25 -92 33 -126 51 -179 77
-227 13 -25 29 -64 35 -86 6 -21 21 -50 35 -64 13 -13 24 -31 24 -40 0 -9 -26
-62 -58 -117 -72 -125 -109 -200 -138 -285 -13 -36 -23 -57 -24 -46 -1 20 -1
20 -15 1 -15 -20 -15 -20 -34 1 -11 11 -17 24 -13 28 4 4 -3 2 -16 -4 -19 -10
-23 -9 -33 11 -6 13 -28 34 -50 48 -21 13 -39 27 -39 31 0 4 -24 15 -52 25
-29 9 -68 25 -86 36 -35 20 -152 26 -152 8 0 -5 -17 -10 -39 -10 -22 0 -44 -6
-51 -15 -8 -9 -21 -13 -37 -9 -17 5 -23 2 -21 -7 2 -9 -20 -19 -64 -30 -38 -9
-85 -25 -105 -35 -21 -10 -63 -19 -93 -21 -85 -5 -145 -15 -156 -26 -4 -4 -12
-7 -18 -7 -6 0 -4 5 4 10 8 5 10 10 4 10 -15 0 -37 -27 -27 -32 4 -3 2 -3 -5
-1 -11 2 -168 -102 -192 -127 -18 -20 -189 -128 -194 -123 -3 4 -6 1 -6 -5 0
-6 -24 -27 -53 -46 -28 -20 -63 -45 -77 -56 -25 -20 -21 -20 2513 -20 l2537 0
0 2700 0 2700 -2677 -3 c-1473 -2 -2682 -4 -2688 -5 -5 0 -55 1 -110 3 l-100
4 72 -23 c84 -27 143 -60 199 -113 22 -21 33 -33 25 -27 -46 31 -73 45 -67 35
4 -6 2 -11 -3 -11 -6 0 -11 5 -11 10 0 6 -4 10 -10 10 -5 0 -10 -9 -10 -19 0
-28 -12 -32 -44 -15 -16 7 -37 14 -48 14 -15 0 -18 5 -13 20 5 16 2 20 -19 20
-15 0 -35 5 -45 12 -18 11 -18 13 -3 25 15 13 14 13 -5 4 -29 -15 -43 -14 -43
3 0 8 -11 17 -24 20 -42 10 -206 25 -221 20 -7 -3 -16 -1 -20 5 -4 8 -559 11
-1871 11 l-1864 0 0 -2700z m4195 2680 c-11 -5 -27 -9 -35 -9 -9 0 -8 4 5 9
11 5 27 9 35 9 9 0 8 -4 -5 -9z m399 -394 c-5 -12 -2 -15 12 -9 11 4 15 3 11
-4 -4 -6 -1 -16 7 -22 8 -7 12 -21 8 -33 -4 -17 -2 -20 11 -15 21 8 21 8 2
-36 -12 -29 -12 -37 -1 -46 8 -7 11 -22 8 -38 -3 -15 -1 -24 5 -20 5 3 8 -14
7 -41 -8 -151 -15 -240 -21 -262 l-7 -25 -7 25 c-4 14 -5 -1 -2 -32 4 -44 2
-60 -11 -73 -15 -15 -16 -15 -16 7 0 13 -5 29 -11 35 -9 9 -9 24 0 59 7 25 9
65 7 88 -3 22 -8 95 -11 161 -4 90 -11 137 -29 188 -13 37 -19 67 -15 67 15 0
10 16 -11 40 -11 12 -17 27 -14 31 3 5 0 9 -5 9 -6 0 -11 9 -11 19 0 10 -7 21
-15 25 -8 3 -15 11 -15 18 0 6 -19 35 -41 62 -23 28 6 3 65 -55 77 -77 105
-111 100 -123z m-357 208 c-3 -3 -12 -4 -19 -1 -8 3 -5 6 6 6 11 1 17 -2 13
-5z m1614 -149 c15 -82 18 -502 6 -648 -9 -97 -15 -117 -19 -64 -1 15 -8 27
-15 27 -7 0 -10 6 -7 13 2 7 -2 21 -10 32 -12 16 -16 17 -30 6 -13 -11 -16
-11 -16 0 -1 10 -5 9 -14 -4 -9 -12 -16 -14 -21 -8 -11 18 -20 12 -32 -20 -7
-17 -16 -28 -21 -25 -6 3 -9 -2 -8 -12 0 -9 -5 -16 -12 -14 -9 2 -11 -4 -7
-18 5 -15 3 -18 -9 -14 -13 5 -12 12 8 52 106 210 167 377 186 511 12 81 9
225 -5 266 -5 16 -5 17 4 5 5 -8 16 -46 22 -85z m-2204 -30 c57 -17 138 -69
161 -103 16 -24 1 -31 -20 -9 -7 8 -20 12 -29 10 -9 -3 -26 5 -37 17 -11 12
-25 19 -31 16 -5 -4 -13 -1 -17 5 -4 8 -3 9 4 5 7 -4 12 -2 12 4 0 6 -10 8
-24 4 -13 -3 -27 -1 -30 5 -4 6 -17 11 -30 11 -12 0 -27 5 -33 11 -14 14 -135
14 -162 0 -11 -7 -21 -8 -21 -3 0 14 99 40 156 41 28 1 73 -6 101 -14z m-997
-158 c0 -2 -12 -14 -27 -28 l-28 -24 24 28 c23 25 31 32 31 24z m2028 -24 c-6
-7 -12 -13 -13 -13 -2 0 -5 6 -8 13 -3 7 3 13 14 13 13 0 15 -3 7 -13z m-2170
-110 c-67 -72 -93 -104 -130 -165 -21 -34 -38 -54 -38 -44 0 9 11 33 24 53 29
42 164 193 174 193 3 0 -10 -17 -30 -37z m822 12 c22 -24 16 -37 -7 -14 -17
17 -70 21 -95 8 -23 -12 -23 -12 -4 10 27 30 76 28 106 -4z m4215 -315 c244
-76 488 -295 619 -557 40 -81 31 -77 -14 5 -51 94 -98 162 -116 169 -8 3 -14
10 -14 15 0 17 -142 148 -160 148 -6 0 -9 5 -8 11 2 6 -16 18 -39 26 -24 8
-43 18 -43 23 0 5 -17 14 -37 21 -21 6 -43 16 -50 21 -7 5 -16 7 -21 4 -6 -3
-29 -2 -54 2 -47 9 -71 6 -62 -9 3 -5 -9 -9 -26 -9 -17 0 -29 -4 -26 -9 3 -4
-6 -13 -19 -19 -14 -7 -25 -19 -25 -28 0 -10 -2 -15 -5 -12 -7 7 -59 -45 -88
-87 -25 -36 -100 -102 -134 -118 -13 -6 -23 -15 -23 -22 0 -6 -16 -17 -36 -24
-20 -7 -57 -27 -82 -45 -26 -17 -75 -45 -110 -63 -34 -17 -77 -43 -95 -58 -56
-45 -136 -105 -142 -105 -3 0 -14 -8 -24 -17 -38 -35 -49 -42 -55 -36 -3 4 -6
-1 -6 -10 0 -9 -11 -19 -25 -23 -27 -7 -183 -165 -220 -224 -13 -21 -35 -46
-49 -57 -14 -11 -23 -23 -20 -26 5 -5 -15 -32 -107 -145 -6 -7 -28 -38 -50
-70 -21 -31 -61 -84 -89 -117 -27 -33 -66 -85 -87 -115 -20 -30 -42 -59 -48
-65 -6 -5 -42 -50 -80 -100 -126 -163 -305 -390 -329 -415 -12 -14 -33 -40
-45 -57 -12 -18 -28 -33 -36 -33 -7 0 -23 -12 -35 -27 -20 -26 -20 -27 -9 -3
7 14 16 28 22 31 5 4 11 24 12 45 4 51 34 126 48 117 6 -3 7 -1 3 6 -7 11 59
196 179 506 112 287 260 562 385 710 14 17 41 51 60 75 91 116 290 309 441
431 263 211 441 311 633 355 86 20 251 12 341 -16z m-2951 -128 c3 -5 -1 -9
-9 -9 -8 0 -15 4 -15 9 0 4 4 8 9 8 6 0 12 -4 15 -8z m1026 -9 c0 -5 -10 -19
-21 -33 l-20 -25 16 33 c15 30 25 41 25 25z m220 -18 c0 -8 -4 -15 -10 -15 -5
0 -7 7 -4 15 4 8 8 15 10 15 2 0 4 -7 4 -15z m-1268 -47 c-10 -22 -11 -21 -11
12 -1 26 2 31 11 22 8 -8 8 -17 0 -34z m1000 -20 c-7 -7 -12 -8 -12 -2 0 14
12 26 19 19 2 -3 -1 -11 -7 -17z m-1012 -85 c0 -7 -4 -13 -9 -13 -5 0 -11 6
-14 13 -3 8 1 14 9 14 8 0 14 -6 14 -14z m-1504 -198 c-5 -52 -13 -92 -17 -90
-7 5 -123 -9 -181 -21 l-27 -5 26 79 26 79 76 26 c114 38 108 42 97 -68z
m3143 -25 c29 -47 43 -83 20 -50 -9 13 -10 13 -6 0 2 -8 10 -15 18 -15 8 0 14
-7 14 -15 0 -8 -6 -14 -13 -12 -8 1 -11 -1 -8 -6 3 -5 -23 -40 -57 -78 -35
-38 -78 -88 -96 -112 -18 -23 -38 -39 -43 -36 -7 4 -8 2 -4 -4 4 -6 -22 -53
-58 -104 -61 -88 -165 -258 -200 -327 -12 -22 -21 -29 -31 -24 -36 21 -152
124 -201 180 -53 60 -54 63 -37 82 12 15 19 17 25 9 5 -9 19 0 45 28 21 22 52
49 70 59 18 10 30 22 27 27 -3 4 1 8 8 8 19 0 68 23 68 33 0 4 9 7 19 7 10 0
29 11 42 25 13 13 30 25 37 25 22 0 65 37 50 42 -7 3 -1 7 14 10 19 4 25 1 21
-9 -3 -7 0 -13 6 -13 6 0 11 7 11 16 0 24 23 42 64 49 21 4 36 13 36 21 0 8 9
14 20 14 11 0 20 -4 20 -9 0 -5 8 -8 18 -6 9 2 22 4 27 4 6 1 4 5 -4 10 -8 5
-20 7 -28 4 -8 -3 -13 2 -13 12 0 12 5 15 16 11 9 -4 23 -1 30 5 11 9 11 13
-1 26 -19 19 -19 34 0 27 8 -4 15 -10 15 -14 0 -4 7 -11 16 -14 12 -5 15 -2
10 11 -5 15 -4 15 9 -1 12 -16 12 -22 2 -28 -9 -6 -9 -8 0 -8 21 0 24 19 7 45
-9 14 -14 29 -10 33 4 3 11 0 16 -8 7 -11 9 -7 7 15 -1 17 -9 35 -17 42 -12 9
-24 63 -14 63 1 0 16 -23 33 -50z m-4016 -55 c-3 -9 -8 -14 -10 -11 -3 3 -2 9
2 15 9 16 15 13 8 -4z m6027 -80 c0 -5 -5 -3 -10 5 -5 8 -10 20 -10 25 0 6 5
3 10 -5 5 -8 10 -19 10 -25z m-6076 0 c-9 -14 -18 -25 -21 -25 -5 0 5 18 20
38 17 22 18 13 1 -13z m886 -197 c-68 -656 -144 -1022 -242 -1165 -31 -47 -24
-56 16 -20 33 30 86 168 141 372 61 225 110 347 202 499 45 75 103 153 103
138 0 -6 3 -19 6 -29 4 -13 3 -14 -4 -5 -7 11 -10 11 -15 -1 -3 -9 0 -18 7
-20 9 -4 15 -43 19 -139 5 -121 14 -171 38 -220 5 -10 9 -23 9 -30 0 -18 75
-99 84 -91 4 4 4 -1 0 -12 -6 -15 -4 -17 10 -12 29 11 28 -15 -8 -154 -48
-187 -202 -656 -212 -646 -2 2 3 23 11 47 18 50 18 53 5 45 -5 -3 -10 1 -10 9
0 21 -20 20 -36 -1 -8 -11 -13 -13 -14 -6 0 7 -7 10 -15 7 -8 -3 -14 -9 -13
-12 2 -21 -4 -32 -17 -32 -20 0 -65 -45 -65 -65 0 -14 -12 -20 -33 -16 -5 1
-6 -2 -3 -7 3 -5 -6 -24 -19 -42 -14 -19 -25 -42 -25 -51 0 -10 -10 -21 -22
-25 -21 -6 -21 -7 -3 -20 33 -24 8 -15 -97 35 -120 58 -153 68 -172 52 -10 -8
-16 -9 -21 -1 -3 5 -13 10 -22 10 -12 0 -13 -3 -4 -14 10 -12 6 -14 -21 -13
-24 2 -32 -2 -30 -12 3 -12 0 -12 -12 -2 -9 7 -13 18 -9 24 3 6 1 7 -6 3 -18
-12 -150 128 -205 217 -107 172 -165 384 -166 597 0 153 40 352 113 566 31 91
33 106 29 191 -5 95 3 163 17 163 5 0 9 -37 10 -82 1 -45 5 -86 9 -92 4 -6 10
-38 13 -71 7 -62 37 -158 51 -163 4 -2 8 -20 8 -41 0 -36 22 -81 40 -81 5 0
21 -12 36 -27 l27 -27 17 34 c10 19 19 28 22 20 3 -9 12 -5 32 13 16 15 37 29
47 32 11 4 19 13 19 21 0 8 9 14 20 14 11 0 20 4 20 9 0 5 11 12 25 15 13 3
36 22 51 41 14 19 32 35 39 35 8 0 27 12 43 28 17 15 46 42 65 60 19 17 40 32
47 32 6 0 11 10 10 23 -3 35 0 43 10 27 8 -13 10 -12 11 5 1 11 5 2 8 -20 4
-30 11 4 25 135 11 96 21 169 23 163 3 -7 -5 -103 -17 -215z m5209 142 c0 -10
-3 -8 -9 5 -12 27 -12 43 0 25 5 -8 9 -22 9 -30z m-6125 -2 c-1 -13 -3 -27 -3
-31 -1 -5 -5 -5 -11 -2 -5 3 -10 1 -10 -4 0 -6 6 -11 13 -11 6 0 3 -8 -8 -16
l-20 -16 20 4 c11 2 42 26 68 53 l49 50 -47 -63 c-26 -35 -51 -59 -57 -56 -7
4 -8 2 -4 -4 8 -13 -108 -162 -125 -162 -17 0 -9 27 35 106 57 105 97 174 100
174 2 0 2 -10 0 -22z m6143 -70 c-3 -8 -6 -5 -6 6 -1 11 2 17 5 13 3 -3 4 -12
1 -19z m10 -40 c-3 -8 -6 -5 -6 6 -1 11 2 17 5 13 3 -3 4 -12 1 -19z m-548
-13 c183 -43 371 -213 415 -375 4 -14 -9 8 -29 48 -48 96 -152 200 -227 226
-29 11 -59 24 -66 29 -8 6 -50 12 -95 13 -78 2 -127 -9 -127 -28 0 -5 -4 -7
-9 -3 -5 3 -22 -6 -38 -21 -15 -14 -41 -32 -58 -39 -16 -7 -43 -25 -59 -39
-16 -14 -34 -26 -39 -26 -19 0 -242 -113 -298 -151 -62 -41 -104 -95 -234
-297 -414 -641 -649 -959 -976 -1321 -152 -168 -228 -246 -229 -234 0 7 7 16
16 21 9 5 14 11 13 13 -4 4 26 40 112 133 270 293 550 652 786 1006 107 161
137 207 298 455 185 285 360 479 490 544 118 60 232 74 354 46z m558 -37 c-3
-8 -6 -5 -6 6 -1 11 2 17 5 13 3 -3 4 -12 1 -19z m10 -95 c-3 -10 -5 -4 -5 12
0 17 2 24 5 18 2 -7 2 -21 0 -30z m0 -245 c-2 -13 -4 -3 -4 22 0 25 2 35 4 23
2 -13 2 -33 0 -45z m-140 -50 c-3 -8 -6 -5 -6 6 -1 11 2 17 5 13 3 -3 4 -12 1
-19z m130 -30 c-3 -8 -6 -5 -6 6 -1 11 2 17 5 13 3 -3 4 -12 1 -19z m-120 -10
c-3 -8 -6 -5 -6 6 -1 11 2 17 5 13 3 -3 4 -12 1 -19z m10 -65 c-3 -10 -5 -4
-5 12 0 17 2 24 5 18 2 -7 2 -21 0 -30z m-582 -87 c135 -36 251 -136 269 -231
l6 -30 -12 31 c-45 111 -135 174 -280 197 -66 10 -167 -2 -192 -25 -6 -4 -22
-8 -37 -8 -15 0 -29 -3 -31 -7 -1 -5 -28 -16 -58 -27 -30 -10 -86 -34 -125
-53 -194 -98 -281 -188 -652 -684 -352 -470 -554 -708 -857 -1011 -216 -216
-516 -491 -516 -471 0 4 16 19 34 33 19 14 32 28 29 33 -2 4 0 7 6 7 6 0 136
125 289 278 454 451 620 642 1002 1157 256 346 328 432 475 578 115 113 247
194 373 228 80 21 208 24 277 5z m582 -63 c-3 -10 -5 -4 -5 12 0 17 2 24 5 18
2 -7 2 -21 0 -30z m-2496 -40 c-12 -20 -14 -14 -5 12 4 9 9 14 11 11 3 -2 0
-13 -6 -23z m2486 -35 c-3 -8 -6 -5 -6 6 -1 11 2 17 5 13 3 -3 4 -12 1 -19z
m-2566 -185 c-12 -20 -14 -14 -5 12 4 9 9 14 11 11 3 -2 0 -13 -6 -23z m-30
-80 c-12 -20 -14 -14 -5 12 4 9 9 14 11 11 3 -2 0 -13 -6 -23z m-47 -127 c-14
-37 -28 -65 -30 -63 -2 2 8 33 23 70 14 37 28 65 30 63 2 -2 -8 -34 -23 -70z
m-78 -180 c-81 -163 -192 -314 -222 -302 -8 3 -11 0 -8 -8 7 -19 -131 -85
-191 -91 l-50 -4 59 15 c32 8 71 23 85 32 14 10 39 23 54 30 15 7 26 16 22 21
-3 5 5 13 17 17 47 15 153 154 221 291 28 56 53 100 55 98 3 -2 -16 -47 -42
-99z m-2461 -407 c-4 -5 -12 -9 -18 -8 -9 0 -8 2 1 6 6 2 9 10 6 15 -4 7 -2 8
5 4 6 -4 9 -12 6 -17z m2960 -69 c3 -5 -1 -10 -10 -10 -9 0 -13 5 -10 10 3 6
8 10 10 10 2 0 7 -4 10 -10z m-25 -24 c0 -3 -4 -8 -10 -11 -5 -3 -10 -1 -10 4
0 6 5 11 10 11 6 0 10 -2 10 -4z m-84 -83 c-11 -11 -19 6 -11 24 8 17 8 17 12
0 3 -10 2 -21 -1 -24z m1924 -137 c0 -2 -8 -10 -17 -17 -16 -13 -17 -12 -4 4
13 16 21 21 21 13z m-2110 -180 c0 -2 -8 -10 -17 -17 -16 -13 -17 -12 -4 4 13
16 21 21 21 13z m-187 -109 c-15 -24 -97 -94 -178 -149 -203 -141 -403 -209
-614 -208 -87 1 -215 20 -229 35 -4 5 2 5 13 1 37 -14 225 -19 278 -8 29 6 81
16 117 22 36 6 80 18 99 27 18 8 39 16 45 17 6 2 22 8 36 14 14 6 46 19 72 28
25 10 44 22 42 26 -3 5 0 9 5 9 40 5 121 50 143 79 11 16 25 27 29 24 5 -3 24
12 44 33 23 24 33 30 29 18 -6 -15 1 -13 29 13 40 34 53 40 40 19z m2008 -253
c-19 -79 -39 -137 -40 -120 -1 16 52 207 56 202 2 -2 -5 -39 -16 -82z m-2215
-143 c-3 -5 -23 -19 -43 -30 -35 -20 -36 -20 -13 -1 14 11 30 24 35 29 13 13
28 14 21 2z m2088 -33 c-149 -245 -309 -401 -373 -361 -9 6 -17 23 -19 39 -1
16 1 25 5 19 11 -14 65 -17 57 -3 -4 6 -3 8 3 5 15 -9 72 20 111 56 17 17 32
27 32 23 0 -5 17 11 38 34 20 24 36 47 34 52 -1 5 4 11 12 14 8 3 34 35 57 70
23 35 43 64 46 64 2 0 1 -6 -3 -12z m-2245 -78 c-47 -32 -59 -36 -59 -20 0 6
7 10 15 10 8 0 15 4 15 8 0 10 38 30 59 31 8 1 -6 -12 -30 -29z m-59 -88 c0
-12 -112 -110 -183 -161 -85 -60 -250 -137 -321 -150 -90 -17 -193 -13 -271 8
-80 23 -231 89 -222 98 4 3 12 1 19 -4 26 -20 142 -54 217 -63 104 -12 144
-11 231 6 102 20 110 23 110 41 0 11 6 14 26 9 18 -5 24 -3 18 5 -4 8 -3 9 4
5 7 -4 31 4 55 18 24 15 52 26 61 26 9 0 14 5 11 10 -3 6 2 10 12 10 26 1 64
36 57 53 -8 22 17 33 31 14 10 -14 12 -14 23 3 9 14 8 20 -1 24 -7 3 -3 4 9 1
12 -3 27 1 34 10 7 8 18 15 25 15 7 0 18 7 25 15 13 16 30 20 30 7z m2218
-174 c-26 -40 -169 -159 -278 -231 -318 -211 -548 -255 -650 -125 -22 29 -50
90 -50 110 0 7 6 2 13 -11 13 -26 21 -32 87 -59 89 -38 240 -64 240 -42 0 5
16 10 35 10 20 0 49 7 66 15 16 9 34 13 39 10 6 -4 17 1 26 9 8 9 27 19 42 22
15 4 37 16 49 26 12 12 27 17 34 13 7 -5 10 -4 6 2 -4 6 12 19 35 29 22 10 56
31 76 46 19 15 40 28 47 28 7 0 20 11 29 25 9 14 22 25 29 25 6 0 39 27 72 60
65 65 75 72 53 38z m-2618 -300 c0 -17 -13 -30 -50 -51 -28 -16 -50 -32 -50
-38 0 -5 -6 -9 -13 -9 -7 0 -20 -9 -30 -20 -21 -25 -43 -26 -52 -2 -7 18 25
47 54 47 9 0 15 6 13 14 -3 12 -1 12 14 0 16 -12 17 -12 11 3 -4 13 5 22 38
38 25 12 47 26 51 31 9 15 14 10 14 -13z m47 6 c-3 -3 -12 -4 -19 -1 -8 3 -5
6 6 6 11 1 17 -2 13 -5z"/>
<path d="M4590 4949 c0 -5 5 -7 10 -4 6 3 10 8 10 11 0 2 -4 4 -10 4 -5 0 -10
-5 -10 -11z"/>
<path d="M4600 4930 c-8 -5 -10 -10 -5 -10 6 0 17 5 25 10 8 5 11 10 5 10 -5
0 -17 -5 -25 -10z"/>
<path d="M4620 4615 c0 -5 5 -17 10 -25 5 -8 10 -10 10 -5 0 6 -5 17 -10 25
-5 8 -10 11 -10 5z"/>
<path d="M2982 3410 c0 -14 2 -19 5 -12 2 6 2 18 0 25 -3 6 -5 1 -5 -13z"/>
<path d="M3190 2161 c0 -6 4 -13 10 -16 6 -3 7 1 4 9 -7 18 -14 21 -14 7z"/>
<path d="M2046 3595 c4 -8 8 -15 10 -15 2 0 4 7 4 15 0 8 -4 15 -10 15 -5 0
-7 -7 -4 -15z"/>
<path d="M4180 5260 c0 -5 7 -10 16 -10 8 0 12 5 9 10 -3 6 -10 10 -16 10 -5
0 -9 -4 -9 -10z"/>
</g>
</svg>
